<svg width="15" height="14" viewBox="0 0 15 14" fill="none" xmlns="http://www.w3.org/2000/svg">
<path d="M14.3845 13.0122L10.8283 9.53317C11.7974 8.37364 12.2739 6.89406 12.1592 5.40048C12.0445 3.9069 11.3473 2.51358 10.212 1.50874C9.07665 0.503889 7.58996 -0.0356119 6.05942 0.00182585C4.52888 0.0392636 3.0716 0.650775 1.98901 1.70987C0.906422 2.76897 0.281346 4.19463 0.243077 5.69195C0.204809 7.18928 0.756277 8.64371 1.78341 9.75441C2.81055 10.8651 4.23477 11.5471 5.76148 11.6593C7.28819 11.7716 8.80059 11.3054 9.98584 10.3573L13.5421 13.8364C13.6544 13.9426 13.8049 14.0013 13.9611 14C14.1174 13.9987 14.2668 13.9374 14.3773 13.8293C14.4877 13.7212 14.5504 13.575 14.5517 13.4222C14.5531 13.2694 14.493 13.1222 14.3845 13.0122ZM6.21811 10.51C5.27543 10.51 4.35393 10.2366 3.57012 9.72421C2.78631 9.21185 2.1754 8.48361 1.81466 7.63159C1.45391 6.77957 1.35952 5.84203 1.54343 4.93753C1.72734 4.03302 2.18128 3.20219 2.84785 2.55008C3.51443 1.89797 4.3637 1.45388 5.28826 1.27396C6.21282 1.09404 7.17116 1.18638 8.04208 1.5393C8.913 1.89222 9.65739 2.48987 10.1811 3.25667C10.7048 4.02347 10.9844 4.92498 10.9844 5.8472C10.983 7.08343 10.4803 8.26864 9.5868 9.14279C8.69326 10.0169 7.48177 10.5086 6.21811 10.51Z" fill="white"/>
</svg>
